PathFileType	4	(X/Y/Z)	12_1_42_p0_0-214.trc
DataRate	CameraRate	NumFrames	NumMarkers	Units	OrigDataRate	OrigDataStartFrame	OrigNumFrames
56.0	56.0	6	27	m	56.0	53	215
Frame#	Time	RHip			RKnee			RAnkle			RBigToe			RSmallToe			RHeel			LHip			LKnee			LAnkle			LBigToe			LSmallToe			LHeel			Neck			Head			Nose			RShoulder			RElbow			RWrist			RThumb			RIndex			RPinky			LShoulder			LElbow			LWrist			LThumb			LIndex			LPinky			
		X1	Y1	Z1	X2	Y2	Z2	X3	Y3	Z3	X4	Y4	Z4	X5	Y5	Z5	X6	Y6	Z6	X7	Y7	Z7	X8	Y8	Z8	X9	Y9	Z9	X10	Y10	Z10	X11	Y11	Z11	X12	Y12	Z12	X13	Y13	Z13	X14	Y14	Z14	X15	Y15	Z15	X16	Y16	Z16	X17	Y17	Z17	X18	Y18	Z18	X19	Y19	Z19	X20	Y20	Z20	X21	Y21	Z21	X22	Y22	Z22	X23	Y23	Z23	X24	Y24	Z24	X25	Y25	Z25	X26	Y26	Z26	X27	Y27	Z27	
53	0.9464285714285714	0.43458485284088444	0.48048888556960484	1.0568777998165975	0.4783710607701028	0.5277503250725475	1.5125049597138598	0.5094952804725865	0.5581283560734303	1.9196618639127727	0.4753313784026538	0.37621478425637106	1.9238392678538632	0.5439665385038217	0.40643031053714335	1.9151926292170536	0.49598101781060006	0.6394510551037089	2.0181840490492657	0.24915242352012335	0.4610457617766452	1.0731795697351676	0.26767824698019527	0.533113834285301	1.5389870478564776	0.31081406811747203	0.5511312032294647	1.9519130393199273	0.3165665443033167	0.352832162567135	1.933348497839086	0.25452327384839507	0.4049391582226151	1.9394770791948024	0.3277017027764973	0.5830151350296671	1.9964042985929293	0.2969494652534231	0.5005759775914095	0.5297646727378216	0.2878904183790912	0.507260610675896	0.2841082887663472	0.2985682857432452	0.4035994914818103	0.39641241666738963	0.4541231423687522	0.5460156064381209	0.6180060934541345	0.5224583083993498	0.4409772045195081	0.8155752296683298	0.3520066697865091	0.295906270870811	0.8139343947681348	0.2446701766461531	0.23192019634000813	0.7481350316449512	0.2385700764128196	0.21816965404157518	0.7911749626024116	0.2542186666751777	0.2383152309256905	0.8602491437622805	0.15641865719953985	0.5268080323774859	0.6298849898192566	0.13171596813265343	0.5088790207619638	0.8509458049384669	0.23759535309003973	0.31822789523159867	0.8480161286427534	0.2613408811856745	0.25235388032090744	0.7711327397795904	0.25249906106748865	0.22243985061520488	0.7794112298096874	0.2617192247238676	0.25800374823796596	0.8580635594844903
54	0.9642857142857143	0.43900661690602777	0.49295906846253323	1.0686608949596832	0.47431266674357603	0.5262659976302908	1.5124506072422734	0.5089614708542323	0.5586980727191748	1.9245815613470396	0.47546293602850964	0.37648048833762643	1.9240451997639452	0.5441083698048704	0.40662920846510225	1.9153124596589086	0.4983851556781408	0.6402762409095749	2.017966624910012	0.24906698095393157	0.4610481469269927	1.0768327905381827	0.2729035279795889	0.5368929470186471	1.5491127046596869	0.3108028408884835	0.5511066008333257	1.9519766252248925	0.32476362900230893	0.3671367770605235	1.9422391990471697	0.2546181297390345	0.40476790167750926	1.9393791318924223	0.327646865949196	0.5830468850097001	1.9965286407214788	0.29691205145624816	0.5004546104434048	0.5297539939020691	0.2878736239127987	0.5072552534863723	0.2841196133001959	0.29855155988950693	0.4035050484265126	0.3964420777181669	0.4541172775663078	0.5459515967130955	0.6179746381888966	0.5189693085602026	0.43845417629583067	0.8189565934497881	0.34837463231598464	0.30718236327480125	0.8175179339177959	0.2405603081657287	0.24124972179477128	0.7558150814986482	0.2316358674639411	0.22672938105028165	0.8007729788982292	0.2530740103340447	0.23793094770912043	0.8559112774285811	0.15574470144514402	0.527380662815529	0.6261732996415257	0.12993134448574958	0.5015398663368602	0.8521978696646242	0.23751320546336735	0.3185228600443806	0.8431947779040668	0.2585884681556654	0.26422281038014295	0.7688970296041568	0.25909745491782965	0.24507823415217891	0.8012685950511376	0.2578820590783495	0.2739545341756674	0.857339456042369
55	0.9821428571428571	0.4425475213113569	0.49253241130649944	1.0601228759540189	0.4783796966784787	0.5277148272895371	1.5124186052827868	0.5090537785421815	0.558805256560227	1.9246218650709215	0.4753565374813844	0.3764301907039458	1.9239552879477326	0.5440686378889903	0.406462619545308	1.915230363301625	0.4997005149445879	0.6448788487686503	2.021508375919154	0.2485281230866316	0.4622645812007764	1.0691547058168538	0.27341264044036817	0.5367438330831379	1.5448100392481758	0.31089020769546527	0.5512011219981734	1.9519301106351	0.32012240374060424	0.36398797333669203	1.9406419898590022	0.2546265012527622	0.40472954596756505	1.9391820669542488	0.32772948582408906	0.5831420096899484	1.9965110630916807	0.29701801690724616	0.5001999862171169	0.533163246464313	0.2878415190844699	0.5072669580110544	0.2840883240429471	0.2984936239770097	0.4036427580703657	0.3964232961542839	0.45404723611739795	0.545935173300614	0.6179816006716468	0.513839074325537	0.4263070131483602	0.8128475461126642	0.3417860342240458	0.28726108434511427	0.8124350666888049	0.24051775906495937	0.24247018589178682	0.7519309020718999	0.23362805367122383	0.22831626825785062	0.7836455869220924	0.2505916561726949	0.23717477081607727	0.8441592881576778	0.1557158454891362	0.5275548756256078	0.626236137948572	0.12447106005396856	0.4939651796185905	0.8450719202303121	0.23380579311406138	0.3330601419451104	0.8530569472702425	0.24847195651346624	0.27795113400386967	0.7792376766407213	0.23911160150333416	0.2408427796115889	0.7930059767491777	0.25560822758945057	0.26741517653719443	0.8559497605274673
56	1.0	0.4469326325932587	0.4792936959988375	1.0625026534979602	0.4784160291659216	0.5278265509429257	1.5123961822162277	0.5088428009886019	0.5607984531221692	1.916354015838875	0.4754804796249169	0.37671627705366895	1.9242326587569036	0.5482315246139232	0.4181637523453063	1.922714591291225	0.500161311756512	0.6443676214658474	2.0158961484417457	0.24931278268168688	0.46334563202070483	1.0773282993668822	0.2734391384191361	0.5366447741544101	1.5448569865765918	0.310882854136829	0.5512978781301554	1.951996207773737	0.3247847626123123	0.36716560739707166	1.9422234238443674	0.2546392262958413	0.4047510314462904	1.9392973546558896	0.3277194816167067	0.583280262387771	1.9966365370136951	0.2970393407876914	0.5002575072393102	0.5332251089661569	0.28787685175555816	0.5072624164612457	0.284048037719367	0.29850642778083314	0.40363776633962606	0.3964164837365427	0.45402673598072696	0.5458579220851987	0.6179324678240183	0.5132470063432486	0.42637201607073855	0.8129857328394235	0.34409495951979796	0.2960428784956597	0.8112877706106952	0.24930706268347308	0.23180044994732477	0.7516655125684683	0.24782311980227442	0.22938476834442742	0.7779510969959506	0.2508188738562332	0.23885996509149296	0.8407216156062878	0.15564210092173467	0.5276034418053686	0.6262692127504442	0.13177553169251208	0.5111059662991552	0.8481108276657047	0.22690191221192246	0.3362477966444155	0.854447415732954	0.24889758051663133	0.25378551246734926	0.7744066033162974	0.23974410465254636	0.2384568686147681	0.7973801314742774	0.25374911592394883	0.2612294320645514	0.8556968666894977
57	1.0178571428571428	0.4417983683262133	0.4769491414230693	1.058253227746535	0.4784118124742338	0.5278782269413155	1.5124425316166439	0.5088603456254153	0.5606097879199078	1.9162725901607756	0.4753842666728429	0.37637216911851823	1.9239593049577477	0.5440596314971844	0.40661663974317547	1.9152880148831695	0.5003309181019474	0.6444398724924385	2.0161936644356704	0.24926768104494018	0.46334384530546147	1.0774800509692846	0.2734809883946969	0.5366130042998192	1.5448823646061065	0.3109097654952816	0.551371319252235	1.9519684323006536	0.32009353706376414	0.3638613501793011	1.9405836198303756	0.2546126584482927	0.4047813598929732	1.939353489197221	0.32774812693499095	0.583311992331805	1.9964994414771513	0.29704187756224926	0.5004060102745688	0.5332618644466454	0.2878492665817772	0.50721774581141	0.2841016163427133	0.29846432107256055	0.40368043115212354	0.39637232789069865	0.45398763728471825	0.5456921032562568	0.6179354508475002	0.5090241673538145	0.4429387070774183	0.8107588419023243	0.3437003091984194	0.29788227002605655	0.8042843201644068	0.2555416327712483	0.2312150554813988	0.7507884289992565	0.25616393328163767	0.20945945877341948	0.7733247927663373	0.2566579630300127	0.2495084203086989	0.8388691032482413	0.15183684582006537	0.525726731884586	0.6264201661746744	0.13184209942075073	0.5114879455739945	0.8479803361451153	0.22636658210058835	0.3345419899876895	0.8537959444084684	0.2524716232956122	0.23983056633538682	0.771773608093358	0.2515722816505737	0.21707634839743054	0.7918290473044786	0.25985113843017155	0.25711390823130853	0.8505543068767615
58	1.0357142857142858	0.44230759781865087	0.46764398053188866	1.0545780466576757	0.47832571117443484	0.5277700847814021	1.5123544002061966	0.5087885897180052	0.5605184407952446	1.9162070503641808	0.4754532085700775	0.3765637170769884	1.9241308208185577	0.5441159846980811	0.4066813046329189	1.9153742407455316	0.4955016040518354	0.6419519761522625	2.0151629810220535	0.2490329438140085	0.46338788597206587	1.0811776065652505	0.27347093222055735	0.5366784612809636	1.5448633871049615	0.3109104984257394	0.5513743801362716	1.95199500111088	0.3247919591508927	0.3670066901054727	1.942156967742454	0.25465590435382396	0.40469350324141234	1.9393619066942476	0.32772695629661713	0.5832605790953104	1.9964980958987917	0.2974909440393527	0.4997351327779032	0.536603495689548	0.2877456579649639	0.5071813016496036	0.28416133106377595	0.29845092581290594	0.4036972183024463	0.3963849344719986	0.45399083228968573	0.545862600801776	0.6179327509227908	0.5052033150886027	0.4587959174458955	0.816194091736913	0.35041635673036003	0.2973292406862276	0.8034598836434655	0.2666892992277557	0.22077506700033586	0.7502761242094957	0.26940832247827673	0.18883398567579485	0.7735627725363771	0.2652434412065021	0.2274890293409659	0.830952414296651	0.1517310353013984	0.5258521838736703	0.6264066921267982	0.13041598207271105	0.5052553624352438	0.8473441008560478	0.229731681710549	0.3195736365459344	0.8486864388502738	0.25882396372892336	0.24901015983607377	0.7741342905152623	0.26658639640520887	0.19871236424877364	0.7788370283185339	0.2670464373245589	0.2529784051591529	0.8487360851724037
